<?xml version="1.0" encoding="utf-8"?>
<svg width="76px" height="76px" viewBox="0 0 76 76" version="1.1" xmlns:xlink="http://www.w3.org/1999/xlink" xmlns="http://www.w3.org/2000/svg">
  <defs>
    <path d="M76 0L76 0L76 76L0 76L0 0L76 0Z" id="path_1" />
    <clipPath id="clip_1">
      <use xlink:href="#path_1" clip-rule="evenodd" fill-rule="evenodd" />
    </clipPath>
  </defs>
  <g id="Blog Logo" clip-path="url(#clip_1)">
    <path d="M76 0L76 0L76 76L0 76L0 0L76 0Z" id="Blog-Logo" fill="none" stroke="none" />
    <path d="M34.4839 9.52321C33.8189 9.49946 33.25 10.0452 33.25 10.7339L33.25 15.4375C33.25 16.1025 33.7725 16.625 34.4375 16.625L34.4375 16.6714C49.2338 17.2414 61.1337 29.1413 61.7037 43.9375L61.7501 43.9375C61.7501 44.6025 62.2726 45.125 62.9376 45.125L67.6412 45.125C68.3299 45.125 68.8756 44.5561 68.8519 43.8911C68.2106 25.2236 53.1514 10.1645 34.4839 9.52321L34.4839 9.52321ZM34.4839 21.3982C33.8189 21.3745 33.25 21.9439 33.25 22.6089L33.25 27.3125C33.25 27.9775 33.7725 28.5 34.4375 28.5L34.4375 28.5696C42.6788 29.1158 49.2592 35.6963 49.8055 43.9375L49.8751 43.9375C49.8751 44.6025 50.3976 45.125 51.0626 45.125L55.7662 45.125C56.4312 45.125 57.0006 44.5561 56.9769 43.8911C56.3356 31.7786 46.5964 22.0395 34.4839 21.3982L34.4839 21.3982ZM13.0625 23.75C12.3975 23.75 11.875 24.2725 11.875 24.9375L11.875 51.0625C11.875 59.565 18.81 66.5 27.3125 66.5C35.815 66.5 42.7501 59.565 42.7501 51.0625C42.7501 42.56 35.815 35.625 27.3125 35.625C26.6475 35.625 26.125 36.1475 26.125 36.8125L26.125 43.9375C26.125 44.6025 26.6475 45.125 27.3125 45.125C30.59 45.125 33.25 47.785 33.25 51.0625C33.25 54.34 30.59 57 27.3125 57C24.035 57 21.375 54.34 21.375 51.0625L21.375 24.9375C21.375 24.2725 20.8525 23.75 20.1875 23.75L13.0625 23.75L13.0625 23.75Z" id="Shape" fill="#FFFFFF" fill-rule="evenodd" stroke="none" />
  </g>
</svg>