<?xml version="1.0" encoding="utf-8"?>
<svg width="57.618225px" height="57.599976px" viewBox="0 0 57.618225 57.599976" version="1.1" xmlns:xlink="http://www.w3.org/1999/xlink" xmlns="http://www.w3.org/2000/svg">
  <path d="M7.20911 0C3.24982 0 0.00909424 3.24072 0.00909424 7.20001L0.00909424 33.449C-0.00305176 33.5565 -0.00305176 33.665 0.00909424 33.7725L0.00909424 50.4C0.00909424 54.3593 3.24982 57.6 7.20911 57.6L50.4091 57.6C54.3684 57.6 57.6091 54.3593 57.6091 50.4L57.6091 33.7838C57.6213 33.6763 57.6213 33.5678 57.6091 33.4603L57.6091 7.20001C57.6091 3.24072 54.3684 0 50.4091 0L7.20911 0L7.20911 0ZM12.9691 7.20001C15.8491 7.20001 21.6091 15.84 28.8091 15.84C36.0091 15.84 41.7691 7.20001 44.6491 7.20001C47.5291 7.20001 47.5291 11.52 47.5291 11.52C47.6587 12.024 48.9691 10.08 50.4091 10.08C52.4697 10.08 53.5851 13.4122 54.7291 15.556L54.7291 33.2578C52.5782 37.4403 48.2384 40.32 43.2091 40.32C41.1141 40.32 39.1563 39.7997 37.4069 38.9166C37.2129 37.4676 36.2568 36.2085 34.915 35.1591C33.409 33.9811 31.3011 33.12 28.8091 33.12C26.3171 33.12 24.2092 33.9811 22.7032 35.1591C21.3614 36.2085 20.4053 37.4676 20.2113 38.9166C18.4619 39.7997 16.5041 40.32 14.4091 40.32C9.37976 40.32 5.03998 37.4403 2.8891 33.2578L2.8891 15.556C4.03308 13.4122 5.14844 10.08 7.20911 10.08C8.64911 10.08 9.95947 12.024 10.0891 11.52C10.0891 11.52 10.0891 7.20001 12.9691 7.20001L12.9691 7.20001ZM14.4091 15.84C9.65479 15.84 5.7691 19.7257 5.7691 24.48L5.7691 27.36C5.7691 32.1144 9.65479 36 14.4091 36C19.1635 36 23.0491 32.1144 23.0491 27.36L23.0491 24.48C23.0491 19.7257 19.1635 15.84 14.4091 15.84L14.4091 15.84ZM43.2091 15.84C38.4548 15.84 34.5691 19.7257 34.5691 24.48L34.5691 27.36C34.5691 32.1144 38.4548 36 43.2091 36C47.9634 36 51.8491 32.1144 51.8491 27.36L51.8491 24.48C51.8491 19.7257 47.9634 15.84 43.2091 15.84L43.2091 15.84ZM14.4091 18.72C17.6064 18.72 20.1691 21.2827 20.1691 24.48L20.1691 27.36C20.1691 30.5573 17.6064 33.12 14.4091 33.12C11.2118 33.12 8.64911 30.5573 8.64911 27.36L8.64911 24.48C8.64911 21.2827 11.2118 18.72 14.4091 18.72L14.4091 18.72ZM43.2091 18.72C46.4064 18.72 48.9691 21.2827 48.9691 24.48L48.9691 27.36C48.9691 30.5573 46.4064 33.12 43.2091 33.12C40.0118 33.12 37.4491 30.5573 37.4491 27.36L37.4491 24.48C37.4491 21.2827 40.0118 18.72 43.2091 18.72L43.2091 18.72ZM14.4091 21.6C13.9915 21.6 13.5879 21.6859 13.2278 21.8587C13.9335 22.1899 14.4091 22.9104 14.4091 23.7599C14.4091 24.9552 13.4443 25.92 12.2491 25.92C11.9899 25.92 11.7595 25.877 11.5291 25.7906L11.5291 27.36C11.5291 28.944 12.8251 30.24 14.4091 30.24C15.9931 30.24 17.2891 28.944 17.2891 27.36L17.2891 24.48C17.2891 23.688 16.9725 22.9678 16.4398 22.4493C15.9213 21.9166 15.2011 21.6 14.4091 21.6L14.4091 21.6ZM43.2091 21.6C42.7915 21.6 42.3879 21.6859 42.0278 21.8587C42.7335 22.1899 43.2091 22.9104 43.2091 23.7599C43.2091 24.9552 42.2443 25.92 41.0491 25.92C40.7899 25.92 40.5595 25.877 40.3291 25.7906L40.3291 27.36C40.3291 28.944 41.6251 30.24 43.2091 30.24C44.7931 30.24 46.0891 28.944 46.0891 27.36L46.0891 24.48C46.0891 23.688 45.7725 22.9678 45.2397 22.4493C44.7213 21.9166 44.0011 21.6 43.2091 21.6L43.2091 21.6ZM28.8091 36C30.6371 36 32.1292 36.6329 33.1432 37.426C34.0983 38.173 34.5038 39.0881 34.5494 39.3862C34.5243 39.4726 34.5074 39.5611 34.4988 39.6506C34.3917 39.8546 34.116 40.1727 33.6354 40.5028C33.4799 40.5684 33.337 40.6606 33.2135 40.7756C32.1651 41.3354 30.5725 41.76 28.8091 41.76C27.0428 41.76 25.4474 41.334 24.3991 40.7728C24.3881 40.7669 24.3818 40.7618 24.371 40.7559C24.2678 40.666 24.1522 40.5911 24.0278 40.5338C23.5175 40.1925 23.2265 39.8607 23.1166 39.6506C23.1089 39.5612 23.0929 39.4727 23.0688 39.3862C23.1144 39.0881 23.52 38.173 24.475 37.426C25.489 36.6329 26.9811 36 28.8091 36L28.8091 36ZM24.6832 43.9902C25.9183 44.3972 27.3092 44.6399 28.8091 44.6399C30.309 44.6399 31.6999 44.3972 32.9351 43.9902C32.7256 44.5864 32.3521 45.3347 31.8016 45.9618C30.9501 46.9319 29.8456 47.5762 28.8091 47.5762C27.7726 47.5762 26.6682 46.9319 25.8166 45.9618C25.2661 45.3347 24.8926 44.5864 24.6832 43.9902L24.6832 43.9902Z" id="Shape" fill="#FFFFFF" fill-rule="evenodd" stroke="none" />
</svg>