<?xml version="1.0" encoding="utf-8"?>
<svg width="36px" height="36px" viewBox="0 0 36 36" version="1.1" xmlns:xlink="http://www.w3.org/1999/xlink" xmlns="http://www.w3.org/2000/svg">
  <defs>
    <path d="M36 0L36 0L36 36L0 36L0 0L36 0Z" id="path_1" />
    <clipPath id="clip_1">
      <use xlink:href="#path_1" clip-rule="evenodd" fill-rule="evenodd" />
    </clipPath>
  </defs>
  <g id="Dribbble" clip-path="url(#clip_1)">
    <path d="M36 0L36 0L36 36L0 36L0 0L36 0Z" id="Dribbble" fill="none" stroke="none" />
    <path d="M5.25 9.94495C6.57 7.87495 8.37 6.14995 10.515 4.94995C13.62 5.96995 16.995 7.94995 19.59 10.905C15.24 12.495 10.14 12.51 5.25 9.94495L5.25 9.94495ZM9.64502 30.5249C5.58002 27.8399 2.89502 23.2349 2.89502 17.9999C2.89502 16.1099 3.24002 14.2949 3.90002 12.6299C7.06502 14.2799 10.305 15.0149 13.44 15.0149C16.26 15.0149 18.975 14.4299 21.45 13.4099C22.005 14.3099 22.485 15.2999 22.875 16.3499C21.45 16.8599 20.04 17.5349 18.705 18.3599C14.1 21.2399 10.86 25.5899 9.64502 30.5249L9.64502 30.5249ZM14.565 3.375C15.63 3.135 16.755 3 17.895 3C21.315 3 24.45 4.14 26.97 6.06C25.695 7.44 24.15 8.655 22.425 9.615C20.205 6.855 17.385 4.785 14.565 3.375L14.565 3.375ZM23.91 20.8351C24.6 27.8251 21.51 32.1301 21.135 32.6401C21.12 32.6401 21.12 32.6551 21.12 32.6551C20.085 32.8801 19.005 33.0001 17.895 33.0001C15.945 33.0001 14.1 32.6251 12.39 31.9501C13.275 27.4801 16.125 23.4901 20.28 20.9101C21.375 20.2201 22.515 19.6651 23.685 19.2451C23.775 19.7551 23.85 20.2951 23.91 20.8351L23.91 20.8351ZM32.88 18.5101C32.7 23.8201 29.775 28.4401 25.455 30.9601C26.445 28.5601 27.345 25.0201 26.895 20.5351C26.82 19.8151 26.715 19.1101 26.58 18.4351C28.74 18.0151 30.885 18.0301 32.88 18.5101L32.88 18.5101ZM25.785 15.5401C25.335 14.3101 24.795 13.1551 24.15 12.0901C26.055 10.9951 27.765 9.6451 29.16 8.1001C30.945 10.1251 32.19 12.6301 32.67 15.4051C30.45 15.0151 28.11 15.0601 25.785 15.5401L25.785 15.5401Z" id="Shape" fill="#000000" fill-rule="evenodd" stroke="none" />
  </g>
</svg>