<?xml version="1.0" encoding="utf-8"?>
<svg width="236.03711px" height="41px" viewBox="0 0 236.03711 41" version="1.1" xmlns:xlink="http://www.w3.org/1999/xlink" xmlns="http://www.w3.org/2000/svg">
  <g id="DesignTeam">
    <g stroke="#000000" stroke-width="1" id="Design-Team" fill="#DBF301">
      <path d="M2.03906 8.85938L11.2852 8.85938Q14.9063 8.85938 16.7344 9.21094Q21.252 10.0723 24.0293 14.0273Q26.209 17.1387 26.209 20.8828Q26.209 24.6973 23.959 27.8262Q21.252 31.6055 16.8926 32.5195Q15.7676 32.748 14.8887 32.8008Q14.0098 32.8535 11.0215 32.8535L2.0918 32.8535L2.14453 21.252L2.03906 8.85938ZM12.7969 9.98438L12.6914 24.1172L12.7969 31.7285Q15.1523 31.7109 16.1807 31.5439Q17.209 31.377 18.5449 30.7969Q21.6914 29.4434 23.4844 26.4375Q25.0488 23.8535 25.0488 20.8477Q25.0488 17.5781 23.2059 14.8359Q19.9234 9.9668 13.4813 9.9668L12.7969 9.98438ZM36.1879 23.8184L36.1879 29.2676Q36.1879 30.8496 36.3812 31.2715Q36.7504 32.0801 38.1215 32.0801Q40.1605 32.0801 42.1557 30.9639Q44.1508 29.8477 45.6098 27.8789Q46.0844 27.2285 46.2953 27.0527Q46.5062 26.877 46.7523 26.877Q47.0512 26.877 47.2445 27.0967Q47.4379 27.3164 47.4379 27.6504Q47.4379 28.3887 46.2602 29.6367Q44.7133 31.2363 42.4193 32.2383Q40.1254 33.2402 37.9457 33.2402Q34.2016 33.2402 31.3363 30.7266Q29.6664 29.25 28.7699 27.0879Q27.9789 25.1895 27.9789 23.291Q27.9789 21.4629 28.682 19.626Q29.3852 17.7891 30.6156 16.4531Q32.0395 14.8887 33.9906 14.0273Q35.9066 13.1836 37.9984 13.1836Q41.2504 13.1836 43.8871 15.0996Q48.0004 18.0879 47.9652 23.7656L43.8695 23.7656L38.5961 23.7832L36.1879 23.8184ZM40.6879 22.6582L40.6879 17.5361Q40.6527 15.8873 40.6176 15.5628Q40.5824 15.2383 40.3715 14.9576Q39.8793 14.2734 38.3676 14.2734Q36.8207 14.2734 36.434 15.0628Q36.1879 15.5363 36.1879 17.5361L36.1879 22.6582L38.3324 22.7285L40.6879 22.6582ZM50.5086 29.6016Q50.8602 29.6016 51.4051 30.1325Q52.284 30.9644 53.9012 31.5574Q55.5184 32.1504 56.9246 32.1504Q57.575 32.1504 57.9002 31.9292Q58.2254 31.7079 58.2254 31.283Q58.2254 30.8581 57.7771 30.265Q57.3289 29.6719 55.7823 28.0017Q52.0036 23.9582 50.8869 22.3147Q49.7703 20.6713 49.7703 19.1596Q49.7703 17.8415 50.535 16.6374Q51.2996 15.4333 52.6707 14.5898Q54.9383 13.1836 57.8738 13.1836Q60.0359 13.1836 62.4441 14.0977Q64.325 14.8184 64.325 15.6621Q64.325 15.9258 64.1053 16.1367Q63.8855 16.3477 63.6043 16.3477Q63.2703 16.3477 62.3563 15.6973Q60.493 14.3613 58.2957 14.3613Q57.5223 14.3613 57.1268 14.6074Q56.7313 14.8535 56.7313 15.3633Q56.7313 15.9609 57.4607 16.875Q58.1902 17.7891 60.4227 19.9688Q62.6023 22.0957 63.1912 22.7549Q63.7801 23.4141 64.325 24.2754Q65.2566 25.752 65.2566 27.4746Q65.2566 30.1816 62.6375 31.8516Q60.493 33.2402 57.3641 33.2402Q53.8836 33.2402 51.1941 31.6934Q50.4031 31.2188 50.1131 30.9199Q49.823 30.6211 49.823 30.2695Q49.823 29.6191 50.5086 29.6016ZM72.7395 7.50586Q77.3801 7.50586 77.3801 9.93164Q77.3801 11.1094 76.1584 11.7686Q74.9367 12.4277 72.7219 12.4277Q68.3098 12.4277 68.3098 9.93164Q68.3098 7.54102 72.7395 7.50586ZM77.2922 13.6582L77.2922 14.168L77.257 16.9102L77.2219 21.1641L77.1691 27.6328L77.2395 31.2715L77.2746 32.8535L68.2395 32.8535L68.3273 26.3848L68.3801 20.6719L68.3449 17.666L68.2922 14.3262L68.3098 13.6582L77.2922 13.6582ZM95.2164 14.4141Q96.7281 15.1523 97.7477 16.3652Q99.1012 18 99.1012 20.1445Q99.1012 21.6738 98.3277 23.0449Q97.5543 24.416 96.1656 25.3477Q93.5992 27.0879 89.9781 27.0879Q88.3082 27.0879 86.902 26.7891Q85.4957 26.4902 84.3355 25.8926Q83.5094 26.4551 83.5094 27.0352Q83.5094 27.7207 84.441 27.8438Q86.4625 28.1074 87.2184 28.002L87.3238 27.9844L92.5797 27.9844L92.8434 27.9668Q95.4801 27.8086 96.6402 28.8457Q97.5367 29.6719 97.5367 30.7793Q97.5367 31.7109 96.9039 32.4668Q95.8492 33.7148 94.0563 33.7148Q93.7223 33.7148 93.2125 33.6797Q93.4938 33.2402 93.4938 32.9941Q93.4938 32.4492 92.5094 32.4492Q91.6656 32.4492 88.9762 32.8184Q87.0953 33.082 85.8648 33.082Q83.9313 33.082 82.5074 32.2559Q81.6813 31.7813 81.2066 30.9551Q80.732 30.1289 80.732 29.1621Q80.732 28.0723 81.3033 27.167Q81.8746 26.2617 83.2105 25.2598Q81.9625 24.4688 81.277 23.1943Q80.5914 21.9199 80.5914 20.4258Q80.5914 16.875 84.1598 14.7656Q86.8316 13.1836 90.6461 13.1836Q91.4898 13.1836 92.4039 13.2715Q93.652 13.377 94.2145 13.377Q95.6031 13.377 96.2359 12.1465Q96.6051 11.4082 97.027 11.4082Q97.3609 11.4082 97.607 11.6279Q97.8531 11.8477 97.8531 12.1641Q97.8531 12.7969 97.15 13.4033Q96.4469 14.0098 95.2164 14.4141ZM88.3082 16.3477L88.3082 23.7832Q88.3082 25.1191 88.5191 25.4355Q88.8707 25.9453 89.9781 25.9453Q90.9977 25.9453 91.3404 25.4619Q91.6832 24.9785 91.6832 23.5547L91.6832 16.3828Q91.6832 15.1875 91.3404 14.7832Q90.9977 14.3789 89.9957 14.3789Q88.9938 14.3789 88.651 14.7832Q88.3082 15.1875 88.3082 16.3477ZM110.855 13.6582L110.855 16.1016Q112.912 14.6426 114.881 13.9131Q116.85 13.1836 118.713 13.1836Q121.209 13.1836 122.932 14.3262Q124.232 15.1875 124.681 16.4619Q125.129 17.7363 125.129 20.6191L125.094 28.7578L125.146 32.8535L116.217 32.8535L116.277 27.9668L116.322 24.3809L116.305 18.9668Q116.287 17.0859 116.261 16.7256Q116.234 16.3652 116.094 16.084Q115.813 15.5215 114.881 15.5215Q114.02 15.5215 113.018 16.0137Q112.016 16.5059 110.855 17.4902L110.838 18.2109L110.803 23.1504L110.768 26.9297L110.82 32.0977L110.838 32.8535L101.855 32.8535L101.908 25.9629L101.961 21.4102L101.908 17.4727L101.855 13.6582L110.855 13.6582Z" />
    </g>
    <g transform="translate(125.93203, 0)" stroke="#000000" stroke-width="1" id="Design-Team" fill="#48BF4C">
      <path d="M17.9121 10.0371L17.8242 15.5391L17.7715 20.7598L17.8242 32.8535L7.10156 32.8535L7.20703 18.8438L7.1543 14.0801L7.10156 10.0371L4.78125 10.0898L1.45898 10.1602L0.966797 10.1777Q0.123047 10.1777 0.123047 9.54492Q0.123047 8.98242 0.615234 8.91211Q0.755859 8.87696 1.47656 8.85938L23.0449 8.85938Q24.1699 8.87696 24.3809 8.96484Q24.7324 9.10547 24.7324 9.5625Q24.7324 10.1602 23.8359 10.1602L22.3066 10.1074L18.2637 10.0371L17.9121 10.0371ZM31.6352 23.8184L31.6352 29.2676Q31.6352 30.8496 31.8285 31.2715Q32.1977 32.0801 33.5687 32.0801Q35.6078 32.0801 37.6029 30.9639Q39.598 29.8477 41.057 27.8789Q41.5316 27.2285 41.7426 27.0527Q41.9535 26.877 42.1996 26.877Q42.4984 26.877 42.6918 27.0967Q42.8852 27.3164 42.8852 27.6504Q42.8852 28.3887 41.7074 29.6367Q40.1605 31.2363 37.8666 32.2383Q35.5727 33.2402 33.393 33.2402Q29.6488 33.2402 26.7836 30.7266Q25.1137 29.25 24.2172 27.0879Q23.4262 25.1895 23.4262 23.291Q23.4262 21.4629 24.1293 19.626Q24.8324 17.7891 26.0629 16.4531Q27.4867 14.8887 29.4379 14.0273Q31.3539 13.1836 33.4457 13.1836Q36.6977 13.1836 39.3344 15.0996Q43.4477 18.0879 43.4125 23.7656L39.3168 23.7656L34.0434 23.7832L31.6352 23.8184ZM36.1352 22.6582L36.1352 17.5361Q36.1 15.8873 36.0648 15.5628Q36.0297 15.2383 35.8187 14.9576Q35.3266 14.2734 33.8148 14.2734Q32.268 14.2734 31.8813 15.0628Q31.6352 15.5363 31.6352 17.5361L31.6352 22.6582L33.7797 22.7285L36.1352 22.6582ZM57.4871 21.1465L57.4871 19.002Q57.4695 16.7695 57.4167 16.2598Q57.3638 15.75 57.0998 15.3457Q56.4659 14.3613 54.142 14.3613Q50.5503 14.3613 48.5961 16.6113Q47.804 17.5254 47.2583 17.5254Q46.8532 17.5254 46.5539 17.2441Q46.2547 16.9629 46.2547 16.5938Q46.2547 15.4863 48.8738 14.3086Q51.3699 13.1836 55.325 13.1836Q61.8289 13.1836 64.5008 15.1523Q65.6609 16.0137 66.0125 17.0859Q66.3641 18.1582 66.3641 20.8652L66.3641 27.8438Q66.2937 29.7773 66.4783 30.7529Q66.6629 31.7285 67.3133 32.8535L57.4695 32.8535L57.4695 31.0078Q55.8523 32.1152 54.2615 32.6777Q52.6707 33.2402 51.1238 33.2402Q48.5047 33.2402 46.4656 31.7109Q43.8113 29.707 43.8113 26.5078Q43.8113 23.6777 45.9586 21.9375Q48.458 19.8809 52.1541 19.8809Q53.6677 19.8809 54.8294 20.1533Q55.991 20.4258 57.4871 21.1465ZM57.4871 22.4121Q55.2723 21.3047 54.0594 21.3047Q53.0398 21.3047 52.7234 22.1133Q52.5477 22.5527 52.5477 24.6621L52.5477 28.8633Q52.5652 30.252 52.6355 30.5508Q52.8113 31.3594 53.8309 31.3594Q54.6395 31.3594 55.6326 30.876Q56.6258 30.3926 57.452 29.6016L57.4871 22.4121ZM93.3059 16.5059Q95.591 14.748 97.5686 13.9658Q99.5461 13.1836 101.743 13.1836Q105.769 13.1836 107.351 15.7676Q107.808 16.541 107.984 17.5518Q108.159 18.5625 108.159 20.5488L108.089 25.1895L108.089 26.2793L108.195 32.1328L108.212 32.8535L99.177 32.8535L99.2473 27.2988L99.3352 21.709L99.3176 19.4414Q99.3 18.1934 99.3176 17.9824Q99.3352 16.5938 99.0188 16.0664Q98.7023 15.5391 97.8762 15.5391Q96.9973 15.5391 95.9514 16.0488Q94.9055 16.5586 93.6926 17.5957Q93.7805 18.2813 93.7805 19.5645L93.7453 23.959L93.7102 28.8984Q93.7102 31.0781 93.798 32.8535L84.7805 32.8535L84.8228 29.0215L84.8859 20.7598Q84.8859 16.6816 84.7805 16.2598Q84.5871 15.5039 83.5148 15.5039Q82.7063 15.5039 81.6955 16.0049Q80.6848 16.5059 79.4543 17.5254L79.384 24.9609L79.4719 32.8535L70.4543 32.8535L70.4543 32.1504L70.4895 28.9512L70.507 24.5918L70.5246 20.373L70.4543 13.6582L79.4543 13.6582L79.4543 16.1191Q81.423 14.6426 83.383 13.9131Q85.343 13.1836 87.2941 13.1836Q90.2297 13.1836 92.0227 14.6602Q92.7434 15.2402 93.3059 16.5059Z" />
    </g>
  </g>
</svg>