<?xml version="1.0" encoding="utf-8"?>
<svg width="72px" height="38.880005px" viewBox="0 0 72 38.880005" version="1.1" xmlns:xlink="http://www.w3.org/1999/xlink" xmlns="http://www.w3.org/2000/svg">
  <path d="M36 0C16.0697 0 0 17.4847 0 38.88L2.88 38.88C2.88 18.9214 17.7559 2.88 36 2.88C54.2441 2.88 69.12 18.9214 69.12 38.88L72 38.88C72 17.4847 55.9303 0 36 0L36 0ZM7.20001 27.36L7.20001 38.88L12.96 38.88L12.96 34.5599L15.84 37.4399L18.72 34.5599L18.72 38.88L24.48 38.88L24.48 27.36L18.72 27.36L15.84 31.6799L12.96 27.36L7.20001 27.36L7.20001 27.36ZM33.12 27.36L25.92 38.88L31.68 38.88L32.6616 37.4399L39.3553 37.4399L40.32 38.88L46.08 38.88L38.88 27.36L33.12 27.36L33.12 27.36ZM47.52 27.36L47.52 38.88L53.28 38.88L53.28 34.5599L59.04 38.88L64.8 38.88L64.8 27.36L59.04 27.36L59.04 31.6799L53.28 27.36L47.52 27.36L47.52 27.36ZM36 32.0625L37.5525 34.5601L34.4447 34.5601L36 32.0625L36 32.0625Z" id="Shape" fill="#FFFFFF" fill-rule="evenodd" stroke="none" />
</svg>