<?xml version="1.0" encoding="utf-8"?>
<svg width="66.32837px" height="66.359985px" viewBox="0 0 66.32837 66.359985" version="1.1" xmlns:xlink="http://www.w3.org/1999/xlink" xmlns="http://www.w3.org/2000/svg">
  <path d="M31.6642 0C14.1768 0 0 14.184 0 31.68C0 47.7446 11.9506 61.0128 27.4421 63.0792L27.4421 56.6957C27.4421 54.8956 26.3074 53.2786 24.6024 52.7054C15.6643 49.7017 9.26929 41.1537 9.50549 31.1458C9.79199 18.9619 19.7122 9.38159 31.8931 9.50543C44.0294 9.62787 53.8286 19.5091 53.8286 31.68C53.8286 32.8205 53.7408 33.9609 53.568 35.087C50.8536 52.9718 27.5717 63.0245 27.4435 63.0792C28.8259 63.2635 30.2343 63.36 31.6642 63.36C49.1515 63.36 63.3284 49.176 63.3284 31.68C63.3284 14.184 49.1515 0 31.6642 0" id="Shape" fill="none" fill-rule="evenodd" stroke="#FFFFFF" stroke-width="3" stroke-linecap="round" stroke-linejoin="round" />
</svg>