<?xml version="1.0" encoding="utf-8"?>
<svg width="57.600037px" height="57.599976px" viewBox="0 0 57.600037 57.599976" version="1.1" xmlns:xlink="http://www.w3.org/1999/xlink" xmlns="http://www.w3.org/2000/svg">
  <path d="M18.72 0C14.7442 0 11.52 3.22418 11.52 7.20001L11.52 8.64001L39.6 8.64001C44.7697 8.64001 48.96 12.8304 48.96 18L48.96 32.4C48.96 35.1835 46.7036 37.44 43.92 37.44L25.2 37.44C22.4165 37.44 20.16 35.1835 20.16 32.4L20.16 23.04L14.4 23.04C12.8088 23.04 11.52 24.3288 11.52 25.92L11.52 38.88C11.52 42.8558 14.7442 46.08 18.72 46.08L50.4 46.08C54.3759 46.08 57.6 42.8558 57.6 38.88L57.6 7.20001C57.6 3.22418 54.3759 0 50.4 0L18.72 0L18.72 0ZM7.20001 11.52C3.22418 11.52 0 14.7442 0 18.72L0 50.4C0 54.3759 3.22418 57.6 7.20001 57.6L38.88 57.6C42.8558 57.6 46.08 54.3759 46.08 50.4L46.08 48.96L18 48.96C12.8304 48.96 8.64001 44.7697 8.64001 39.6L8.64001 25.2C8.64001 22.4165 10.8965 20.16 13.68 20.16L32.4 20.16C35.1835 20.16 37.44 22.4165 37.44 25.2L37.44 34.56L43.2 34.56C44.7912 34.56 46.08 33.2712 46.08 31.68L46.08 18.72C46.08 14.7442 42.8558 11.52 38.88 11.52L7.20001 11.52L7.20001 11.52Z" id="Shape" fill="#FFFFFF" fill-rule="evenodd" stroke="none" />
</svg>