<?xml version="1.0" encoding="utf-8"?>
<svg width="63px" height="51.75px" viewBox="0 0 63 51.75" version="1.1" xmlns:xlink="http://www.w3.org/1999/xlink" xmlns="http://www.w3.org/2000/svg">
  <path d="M24.75 0C20.1825 0 16.6619 3.97748 16.6597 11.272C16.6597 16.0352 23.8685 28.2544 30.2607 38.9531C30.2607 11.2511 29.5785 8.25073 24.75 0L24.75 0ZM38.25 0C33.327 8.10901 32.7393 11.2489 32.7393 38.9531C39.1315 28.2544 46.3403 16.0352 46.3403 11.272C46.3381 3.97522 42.8175 0 38.25 0L38.25 0ZM9 9C2.29727 13.6777 4.50204 24.751 7.88379 28.3667C10.118 30.7067 18.7875 34.92 27 40.5L9 9L9 9ZM54 9L36 40.5C44.2125 34.92 52.882 30.7067 55.1162 28.3667C58.498 24.751 60.7028 13.6777 54 9L54 9ZM0 27C0.108002 39.4695 7.7193 42.75 12.8628 42.75L25.7212 42.75L0 27L0 27ZM63 27L37.2788 42.75L50.1372 42.75C55.2807 42.75 62.892 39.4695 63 27L63 27ZM7.01367 45C7.73141 48.7216 9.354 51.75 14.0317 51.75C18.7095 51.75 23.2327 49.05 25.7212 45L7.01367 45L7.01367 45ZM37.2788 45C39.7673 49.05 44.2905 51.75 48.9683 51.75C53.646 51.75 55.2686 48.7216 55.9863 45L37.2788 45L37.2788 45Z" id="Shape" fill="#FFFFFF" fill-rule="evenodd" stroke="none" />
</svg>